<?xml version="1.0"?>
<svg xmlns="http://www.w3.org/2000/svg" xmlns:xlink="http://www.w3.org/1999/xlink" xmlns:svgjs="http://svgjs.com/svgjs" version="1.1" width="512" height="512" x="0" y="0" viewBox="0 0 511.996 511.996" style="enable-background:new 0 0 512 512" xml:space="preserve" class=""><g><g xmlns="http://www.w3.org/2000/svg"><path d="m264.321 102.19c-5.119-1.81-10.765-3.983-13.827-6.385-.441-.346-.742-1.534-.48-2.921.137-.726.768-3.15 3.147-3.867 5.303-1.598 8.705 1.055 9.077 1.363 3.186 2.648 7.915 2.214 10.562-.972 2.648-3.185 2.214-7.914-.972-10.562-2.178-1.811-5.163-3.451-8.687-4.421v-1.028c0-4.142-3.357-7.5-7.5-7.5-4.142 0-7.5 3.358-7.5 7.5v1.494c-6.612 2.274-11.514 8.033-12.868 15.215-1.299 6.892.987 13.598 5.964 17.502 4.756 3.731 11.503 6.398 18.085 8.725 4.263 1.507 4.694 4.577 4.307 6.888-.55 3.268-3.3 6.799-8.038 6.83-5.35.04-6.753-.184-10.724-2.781-3.467-2.269-8.115-1.297-10.382 2.17-2.268 3.466-1.296 8.114 2.17 10.382 4.368 2.858 7.708 4.202 11.485 4.799v1.154c0 4.142 3.358 7.5 7.5 7.5 4.143 0 7.5-3.358 7.5-7.5v-1.985c8.543-2.923 14.012-10.543 15.28-18.083 1.759-10.463-3.907-19.914-14.099-23.517z" fill="#ffffff" data-original="#000000" style="" class=""/><path d="m505.649 224.031-72.699-122.392 51.768-11.057c12.898-2.742 22.261-14.302 22.261-27.486 0-1.965-.211-3.947-.627-5.889-1.569-7.342-5.906-13.634-12.21-17.718-6.306-4.083-13.821-5.466-21.16-3.898l-154.826 33.068c-6.466-9.788-15.179-17.958-25.4-23.786v-17.753c0-14.954-12.161-27.12-27.109-27.12h-19.3c-14.948 0-27.109 12.166-27.109 27.12v17.752c-19.188 10.943-33.065 30.156-36.729 52.762l-71.458 15.267c-4.051.865-6.633 4.851-5.768 8.901.752 3.523 3.864 5.935 7.327 5.935.519 0 1.046-.054 1.574-.167l67.443-14.409c.429 9.032 2.474 17.647 5.853 25.563l-151.6 32.388c-3.423.731-6.929.085-9.87-1.82-2.942-1.906-4.965-4.844-5.698-8.274-.195-.913-.294-1.842-.294-2.762 0-6.135 4.365-11.515 10.386-12.795l54.45-11.63c4.051-.865 6.633-4.85 5.768-8.901s-4.853-6.634-8.901-5.768l-54.443 11.628c-12.898 2.742-22.26 14.293-22.26 27.466 0 1.973.21 3.957.625 5.897 1.569 7.346 5.905 13.642 12.209 17.727 4.61 2.988 9.868 4.532 15.232 4.531 1.971 0 3.958-.208 5.93-.63l34.56-7.383-67.229 113.184.006.004c-.668 1.121-1.058 2.427-1.058 3.826v19.72c0 23.437 19.067 42.503 42.503 42.503h81.201c23.437 0 42.503-19.067 42.503-42.503v-19.72c0-1.4-.39-2.705-1.058-3.826l.006-.004-70.566-118.804 95.27-20.353c6.314 8.941 14.54 16.43 24.086 21.874v265.597h-82.08c-19.878 0-36.05 16.172-36.05 36.05 0 9.625 3.753 18.679 10.567 25.494 6.808 6.807 15.858 10.556 25.483 10.556h187.79c4.143 0 7.5-3.358 7.5-7.5s-3.357-7.5-7.5-7.5h-187.79c-5.619 0-10.902-2.189-14.877-6.163-3.981-3.981-6.173-9.268-6.173-14.887 0-11.607 9.443-21.05 21.05-21.05h89.57.01 58.519.01 89.562c5.617 0 10.905 2.191 14.881 6.158 3.979 3.986 6.169 9.275 6.169 14.893 0 11.607-9.443 21.05-21.05 21.05h-19.88c-4.143 0-7.5 3.358-7.5 7.5s3.357 7.5 7.5 7.5h19.88c19.878 0 36.05-16.172 36.05-36.05 0-9.619-3.747-18.67-10.562-25.499-6.817-6.804-15.869-10.551-25.487-10.551h-82.071v-265.598c18.536-10.571 32.115-28.861 36.318-50.473l82.45-17.611-69.981 117.816.006.004c-.667 1.121-1.058 2.427-1.058 3.826v19.719c0 23.437 19.067 42.503 42.504 42.503h81.201c23.437 0 42.504-19.067 42.504-42.503v-19.719c0-1.4-.39-2.705-1.058-3.826zm-417.251-41.216 62.426 105.097h-124.852zm68.104 132.317c0 15.166-12.338 27.503-27.503 27.503h-81.202c-15.166 0-27.503-12.338-27.503-27.503v-12.22h136.208zm319.614-264.872c3.427-.731 6.929-.085 9.87 1.819 2.941 1.905 4.965 4.84 5.697 8.267.195.913.295 1.838.295 2.75 0 6.146-4.365 11.535-10.387 12.815l-151.169 32.289c-.167-9.063-1.959-17.732-5.1-25.734zm-241.878-23.14c0-6.683 5.432-12.12 12.109-12.12h19.3c6.677 0 12.109 5.437 12.109 12.12v11.257c-6.887-2.109-14.191-3.251-21.759-3.251s-14.873 1.143-21.76 3.251v-11.257zm43.519 412.776h-43.519v-259.102c6.887 2.109 14.192 3.251 21.76 3.251s14.873-1.143 21.759-3.251zm-21.76-270.851c-32.786 0-59.46-26.674-59.46-59.46s26.674-59.459 59.46-59.459 59.459 26.673 59.459 59.459-26.673 59.46-59.459 59.46zm230.026 51.316h-124.853l62.426-105.097zm5.678 27.22c0 15.166-12.338 27.503-27.504 27.503h-81.201c-15.166 0-27.504-12.338-27.504-27.503v-12.219h136.209z" fill="#ffffff" data-original="#000000" style="" class=""/></g></g></svg>
