<?xml version="1.0"?>
<svg xmlns="http://www.w3.org/2000/svg" xmlns:xlink="http://www.w3.org/1999/xlink" xmlns:svgjs="http://svgjs.com/svgjs" version="1.1" width="512" height="512" x="0" y="0" viewBox="0 0 512.022 512.022" style="enable-background:new 0 0 512 512" xml:space="preserve" class=""><g>
<g xmlns="http://www.w3.org/2000/svg" transform="translate(-1)">
	<g>
		<g>
			<path d="M513.011,61.365c0.417-14.574-11.027-26.743-25.6-27.221h-71.307l0.661-5.454c0.881-7.273-1.395-14.574-6.254-20.057     c-4.858-5.483-11.833-8.622-19.159-8.622H122.669c-7.326,0-14.3,3.139-19.159,8.622c-4.858,5.483-7.135,12.785-6.254,20.057     l0.661,5.454H26.611c-14.573,0.478-26.017,12.646-25.6,27.221v355.158c-0.417,14.574,11.027,26.743,25.6,27.221H191.61     l-17.5,51.2h-10.965c-4.713,0-8.533,3.82-8.533,8.533s3.82,8.533,8.533,8.533h187.733c4.713,0,8.533-3.82,8.533-8.533     s-3.82-8.533-8.533-8.533h-10.965l-17.5-51.2h164.999c14.573-0.478,26.017-12.646,25.6-27.221V61.365z M116.286,19.949     c1.611-1.837,3.94-2.884,6.383-2.871h268.683c2.442,0,4.768,1.047,6.387,2.875c1.62,1.828,2.378,4.263,2.084,6.687     L369.19,279.357c-0.373,3.019-2.319,5.614-5.112,6.817l-30.714,13.164l-0.111,0.047l-72.88,31.235     c-2.147,0.914-4.573,0.915-6.721,0.004l-72.887-31.242l-0.103-0.044l-30.722-13.168c-2.791-1.201-4.736-3.793-5.108-6.808     L114.199,26.64C113.893,24.213,114.654,21.772,116.286,19.949z M192.144,494.944l17.5-51.2h94.733l17.5,51.2H192.144z      M487.411,426.678h-460.8c-5.107-0.55-8.871-5.029-8.533-10.154v-41.046h477.867v41.046     C496.282,421.649,492.518,426.128,487.411,426.678z M495.944,61.365v297.046H18.078V61.365     c-0.338-5.125,3.427-9.605,8.533-10.154h73.375l21.721,179.2h-26.83c-4.713,0-8.533,3.82-8.533,8.533s3.821,8.533,8.533,8.533     h28.899l2.069,17.067h-13.901c-4.713,0-8.533,3.821-8.533,8.533c0,4.713,3.82,8.533,8.533,8.533h15.996     c0.898,6.789,4.476,12.935,9.937,17.067h-25.933c-4.713,0-8.533,3.82-8.533,8.533s3.82,8.533,8.533,8.533h63.675l71.312,30.566     c6.44,2.739,13.718,2.739,20.158,0l0.004-0.004l71.31-30.562h63.673c4.713,0,8.533-3.82,8.533-8.533s-3.82-8.533-8.533-8.533     h-25.932c5.459-4.133,9.037-10.279,9.934-17.067h15.997c4.713,0,8.533-3.821,8.533-8.533c0-4.713-3.82-8.533-8.533-8.533h-13.902     l2.069-17.067h28.9c4.713,0,8.533-3.82,8.533-8.533s-3.82-8.533-8.533-8.533h-26.831l21.722-179.2h73.375     C492.518,51.761,496.282,56.24,495.944,61.365z" fill="#ffffff" data-original="#000000" style="" class=""/>
			<path d="M160.003,262.661v0.004c0.742,6.036,4.632,11.224,10.217,13.63l80.063,34.313c4.297,1.833,9.157,1.833,13.454,0     l80.071-34.313c5.584-2.408,9.471-7.598,10.213-13.633l25.383-209.396c0.588-4.849-0.929-9.717-4.168-13.373     c-3.239-3.656-7.889-5.748-12.773-5.748h-210.9c-4.883,0-9.533,2.092-12.772,5.747c-3.239,3.655-4.757,8.522-4.17,13.37     L160.003,262.661z M362.461,51.211l-25.383,209.4l-80.067,34.313l-80.067-34.313l-25.383-209.4H362.461z" fill="#ffffff" data-original="#000000" style="" class=""/>
			<path d="M189.482,163.094c0.097,0.452,0.232,0.894,0.405,1.323c0.1,0.459,0.237,0.909,0.412,1.345     c0.289,0.556,0.64,1.077,1.047,1.553c0.582,0.959,1.452,1.709,2.485,2.146c0.299,0.211,0.611,0.402,0.935,0.572     c1.009,0.419,2.09,0.638,3.183,0.645l0.01,0l0.002,0h108.475l-6.966,57.742l-42.458,18.283l-42.458-18.283l-3.85-32.383     c-0.559-4.678-4.804-8.018-9.483-7.462c-4.679,0.557-8.021,4.799-7.467,9.478l4.437,37.292c0.362,3.036,2.32,5.646,5.133,6.842     l50.279,21.65c2.174,0.944,4.643,0.944,6.817,0l50.279-21.65c2.813-1.196,4.772-3.806,5.133-6.842l8.7-72.162     c0.022-0.182-0.051-0.345-0.041-0.525c0.011-0.179,0.104-0.33,0.104-0.512c-0.049-0.39-0.127-0.775-0.233-1.154     c-0.055-0.566-0.168-1.125-0.337-1.668c-0.196-0.502-0.442-0.984-0.733-1.438c-0.483-0.971-1.214-1.798-2.119-2.397     c-0.418-0.347-0.87-0.652-1.349-0.909c-0.513-0.23-1.048-0.408-1.597-0.531c-0.366-0.153-0.743-0.278-1.128-0.375     c-0.182-0.021-0.343,0.051-0.523,0.041s-0.332-0.104-0.514-0.104H205.532l-7.154-59.733h126.9c4.713,0,8.533-3.821,8.533-8.533     s-3.82-8.533-8.533-8.533H188.744c-2.442,0-4.768,1.047-6.387,2.875s-2.378,4.263-2.083,6.688L189.482,163.094z" fill="#ffffff" data-original="#000000" style="" class=""/>
			<path d="M43.678,247.478h17.067c4.713,0,8.533-3.82,8.533-8.533s-3.82-8.533-8.533-8.533H43.678c-4.713,0-8.533,3.82-8.533,8.533     S38.965,247.478,43.678,247.478z" fill="#ffffff" data-original="#000000" style="" class=""/>
			<path d="M86.344,264.544H43.678c-4.713,0-8.533,3.821-8.533,8.533c0,4.713,3.82,8.533,8.533,8.533h42.667     c4.713,0,8.533-3.821,8.533-8.533C94.878,268.365,91.057,264.544,86.344,264.544z" fill="#ffffff" data-original="#000000" style="" class=""/>
			<path d="M77.811,298.678H43.678c-4.713,0-8.533,3.82-8.533,8.533s3.82,8.533,8.533,8.533h34.133c4.713,0,8.533-3.82,8.533-8.533     S82.524,298.678,77.811,298.678z" fill="#ffffff" data-original="#000000" style="" class=""/>
			<path d="M470.344,230.411h-17.067c-4.713,0-8.533,3.82-8.533,8.533s3.821,8.533,8.533,8.533h17.067     c4.713,0,8.533-3.82,8.533-8.533S475.057,230.411,470.344,230.411z" fill="#ffffff" data-original="#000000" style="" class=""/>
			<path d="M470.344,264.544h-42.667c-4.713,0-8.533,3.821-8.533,8.533c0,4.713,3.82,8.533,8.533,8.533h42.667     c4.713,0,8.533-3.821,8.533-8.533C478.878,268.365,475.057,264.544,470.344,264.544z" fill="#ffffff" data-original="#000000" style="" class=""/>
			<path d="M470.344,298.678h-34.133c-4.713,0-8.533,3.82-8.533,8.533s3.82,8.533,8.533,8.533h34.133     c4.713,0,8.533-3.82,8.533-8.533S475.057,298.678,470.344,298.678z" fill="#ffffff" data-original="#000000" style="" class=""/>
		</g>
	</g>
</g>
<g xmlns="http://www.w3.org/2000/svg">
</g>
<g xmlns="http://www.w3.org/2000/svg">
</g>
<g xmlns="http://www.w3.org/2000/svg">
</g>
<g xmlns="http://www.w3.org/2000/svg">
</g>
<g xmlns="http://www.w3.org/2000/svg">
</g>
<g xmlns="http://www.w3.org/2000/svg">
</g>
<g xmlns="http://www.w3.org/2000/svg">
</g>
<g xmlns="http://www.w3.org/2000/svg">
</g>
<g xmlns="http://www.w3.org/2000/svg">
</g>
<g xmlns="http://www.w3.org/2000/svg">
</g>
<g xmlns="http://www.w3.org/2000/svg">
</g>
<g xmlns="http://www.w3.org/2000/svg">
</g>
<g xmlns="http://www.w3.org/2000/svg">
</g>
<g xmlns="http://www.w3.org/2000/svg">
</g>
<g xmlns="http://www.w3.org/2000/svg">
</g>
</g></svg>
