<?xml version="1.0" encoding="UTF-8"?><svg width="22" height="22" viewBox="0 0 22 22" xmlns="http://www.w3.org/2000/svg"><!--Generator: Sketch 50.2 (55047) - http://www.bohemiancoding.com/sketch--><path d="M12.9756096,6.03882163 C12.6743901,6.03882163 12.3499998,6.03882163 12.0487803,6.06292999 L12.0487803,2.41083636 C12.0487803,2.33851127 12.0487803,4.82062454 12.0487803,2.16975273 C12.0487803,0.675034182 8.9207316,0 6.02439017,0 C3.12804874,0 0,0.675034182 0,2.16975273 C0,2.24207782 5.42500933e-13,2.33851127 0.0231707314,2.41083636 L0,9.65507617 C0,11.1497947 3.12804874,11.8248289 6.02439017,11.8248289 C6.32560968,11.8248289 6.64999992,11.8248289 6.95121942,11.8007205 L6.95121942,13.0302471 C6.95121942,14.5249656 10.0792682,15.1999998 12.9756096,15.1999998 C15.871951,15.1999998 18.9999998,14.5249656 18.9999998,13.0302471 L18.9999998,8.20857435 C18.9999998,6.71385581 15.871951,6.03882163 12.9756096,6.03882163 Z M10.959756,6.15936344 C11.0292682,6.13525508 11.0756096,6.11114672 11.1219511,6.06292999 L11.1219511,6.13525508 C11.0756096,6.13525508 11.0060974,6.13525508 10.959756,6.15936344 Z M5.92364786,1.02151411 C9.23706245,1.02151411 11.0212088,1.89392245 11.0212088,2.26781174 C11.0212088,2.64170102 9.23706245,3.51410936 5.92364786,3.51410936 C2.61023327,3.51410936 0.826086946,2.64170102 0.826086946,2.26781174 C0.826086946,1.89392245 2.61023327,1.02151411 5.92364786,1.02151411 Z M0.926829257,3.65209363 C2.0621951,4.30301944 4.10121946,4.59231981 6.02439017,4.59231981 C7.94756088,4.59231981 9.98658524,4.30301944 11.1219511,3.65209363 L11.1219511,4.83340344 C11.1219511,5.1950289 9.33780476,6.03882163 6.02439017,6.03882163 C2.71097558,6.03882163 0.926829257,5.1950289 0.926829257,4.83340344 L0.926829257,3.65209363 Z M0.926829257,6.06292999 C2.0621951,6.71385581 4.10121946,7.00315617 6.02439017,7.00315617 C6.69634138,7.00315617 7.39146332,6.95493944 8.0402438,6.88261435 C7.36829259,7.22013144 6.95121942,7.65408199 6.95121942,8.20857435 L6.95121942,8.42554963 C6.64999992,8.44965799 6.32560968,8.44965799 6.02439017,8.44965799 C2.71097558,8.44965799 0.926829257,7.60586526 0.926829257,7.24423981 L0.926829257,6.06292999 Z M6.02439017,10.8604944 C2.71097558,10.8604944 0.926829257,10.0167016 0.926829257,9.65507617 L0.926829257,8.47376635 C2.0621951,9.12469217 4.10121946,9.41399254 6.02439017,9.41399254 C6.32560968,9.41399254 6.64999992,9.41399254 6.95121942,9.38988417 L6.95121942,10.836386 C6.64999992,10.8604944 6.32560968,10.8604944 6.02439017,10.8604944 Z M12.9756096,14.2356653 C9.662195,14.2356653 7.87804868,13.3918725 7.87804868,13.0302471 L7.87804868,11.8489373 C9.01341452,12.4998631 11.0524389,12.7891634 12.9756096,12.7891634 C14.8987803,12.7891634 16.9378047,12.4998631 18.0731705,11.8489373 L18.0731705,13.0302471 C18.0731705,13.3918725 16.2890242,14.2356653 12.9756096,14.2356653 Z M12.9756096,11.8248289 C9.662195,11.8248289 7.87804868,10.9810362 7.87804868,10.6194107 L7.87804868,9.4381009 C9.01341452,10.0890267 11.0524389,10.3783271 12.9756096,10.3783271 C14.8987803,10.3783271 16.9378047,10.0890267 18.0731705,9.4381009 L18.0731705,10.6194107 C18.0731705,10.9810362 16.2890242,11.8248289 12.9756096,11.8248289 Z M12.9756096,9.41399254 C9.662195,9.41399254 7.87804868,8.57019981 7.87804868,8.20857435 C7.87804868,7.8469489 9.662195,7.00315617 12.9756096,7.00315617 C16.2890242,7.00315617 18.0731705,7.8469489 18.0731705,8.20857435 C18.0731705,8.57019981 16.2890242,9.41399254 12.9756096,9.41399254 Z" transform="translate(2.000000, 3.000000)" fill="#F9AB00" fill-rule="nonzero" stroke="#F9AB00" stroke-width=".25"/></svg>